<svg aria-hidden="true" focusable="false" data-prefix="far" data-icon="align-right" class="svg-inline--fa fa-align-right fa-w-14" role="img" xmlns="http://www.w3.org/2000/svg" viewBox="0 0 448 512"><path fill="currentColor" d="M160 80V48c0-6.627 5.373-12 12-12h264c6.627 0 12 5.373 12 12v32c0 6.627-5.373 12-12 12H172c-6.627 0-12-5.373-12-12zM12 220h424c6.627 0 12-5.373 12-12v-32c0-6.627-5.373-12-12-12H12c-6.627 0-12 5.373-12 12v32c0 6.627 5.373 12 12 12zm0 256h424c6.627 0 12-5.373 12-12v-32c0-6.627-5.373-12-12-12H12c-6.627 0-12 5.373-12 12v32c0 6.627 5.373 12 12 12zm160-128h264c6.627 0 12-5.373 12-12v-32c0-6.627-5.373-12-12-12H172c-6.627 0-12 5.373-12 12v32c0 6.627 5.373 12 12 12z"></path></svg>