<?xml version="1.0" encoding="UTF-8"?>
<svg width="18px" height="15px" viewBox="0 0 18 15" version="1.1" xmlns="http://www.w3.org/2000/svg" xmlns:xlink="http://www.w3.org/1999/xlink">
    <!-- Generator: Sketch 53.1 (72631) - https://sketchapp.com -->
    <title>modules/texteditor/tooltip/custom-icon/H1 Copy 4</title>
    <desc>Created with Sketch.</desc>
    <g id="Documentation" stroke="none" stroke-width="1" fill="none" fill-rule="evenodd">
        <g id="Trama---LIibrary-2" transform="translate(-285.000000, -3269.000000)" fill="#000000">
            <g id="icons/custom/text-editor/list" transform="translate(284.188154, 3266.454468)">
                <path d="M4.7434739,4.7434739 C4.7434739,5.61441457 4.03745674,6.32043173 3.16651607,6.32043173 C2.2955754,6.32043173 1.58955824,5.61441457 1.58955824,4.7434739 C1.58955824,3.87253323 2.2955754,3.16651607 3.16651607,3.16651607 C4.03745674,3.16651607 4.7434739,3.87253323 4.7434739,4.7434739 Z M3.16651607,8.42304217 C2.2955754,8.42304217 1.58955824,9.12905933 1.58955824,10 C1.58955824,10.8709407 2.2955754,11.5769578 3.16651607,11.5769578 C4.03745674,11.5769578 4.7434739,10.8709407 4.7434739,10 C4.7434739,9.12905933 4.03745674,8.42304217 3.16651607,8.42304217 Z M3.16651607,13.6795683 C2.2955754,13.6795683 1.58955824,14.3855854 1.58955824,15.2565261 C1.58955824,16.1274668 2.2955754,16.8334839 3.16651607,16.8334839 C4.03745674,16.8334839 4.7434739,16.1274668 4.7434739,15.2565261 C4.7434739,14.3855854 4.03745674,13.6795683 3.16651607,13.6795683 Z M18.4104418,5.26912651 L18.4104418,4.21782129 C18.4104418,4.00010255 18.233921,3.82358183 18.0162023,3.82358183 L6.18901858,3.82358183 C5.97129984,3.82358183 5.79477912,4.00010255 5.79477912,4.21782129 L5.79477912,5.26912651 C5.79477912,5.48684525 5.97129984,5.66336597 6.18901858,5.66336597 L18.0162023,5.66336597 C18.233921,5.66336597 18.4104418,5.48684525 18.4104418,5.26912651 Z M18.4104418,10.5256526 L18.4104418,9.47434739 C18.4104418,9.25662865 18.233921,9.08010793 18.0162023,9.08010793 L6.18901858,9.08010793 C5.97129984,9.08010793 5.79477912,9.25662865 5.79477912,9.47434739 L5.79477912,10.5256526 C5.79477912,10.7433714 5.97129984,10.9198921 6.18901858,10.9198921 L18.0162023,10.9198921 C18.233921,10.9198921 18.4104418,10.7433714 18.4104418,10.5256526 Z M18.4104418,15.7821787 L18.4104418,14.7308735 C18.4104418,14.5131548 18.233921,14.336634 18.0162023,14.336634 L6.18901858,14.336634 C5.97129984,14.336634 5.79477912,14.5131548 5.79477912,14.7308735 L5.79477912,15.7821787 C5.79477912,15.9998975 5.97129984,16.1764182 6.18901858,16.1764182 L18.0162023,16.1764182 C18.233921,16.1764182 18.4104418,15.9998975 18.4104418,15.7821787 Z" id="Shape"></path>
            </g>
        </g>
    </g>
</svg>