<?xml version="1.0" encoding="UTF-8"?>
<svg  viewBox="0 0 17 13" version="1.1" xmlns="http://www.w3.org/2000/svg" xmlns:xlink="http://www.w3.org/1999/xlink">
    <!-- Generator: Sketch 53.1 (72631) - https://sketchapp.com -->
    <title>icons/custom/text-editor/quote</title>
    <desc>Created with Sketch.</desc>
    <g id="Documentation" stroke="none" stroke-width="1" fill="none" fill-rule="evenodd">
        <g id="Trama---LIibrary-2" transform="translate(-324.000000, -3270.000000)">
            <g id="icons/custom/text-editor/quote" transform="translate(322.495276, 3266.454468)">
                <path fill="currentColor" d="M7.59373696,3.8750146 C8.67928659,3.8750146 9.56248227,4.75821028 9.56248227,5.84375991 L9.56248227,11.0937474 C9.56248227,13.8691314 7.30662827,16.1249854 4.53124426,16.1249854 L4.31249478,16.1249854 C3.58788714,16.1249854 2.99999791,15.5370962 2.99999791,14.8124885 L2.99999791,13.4999917 C2.99999791,12.775384 3.58788714,12.1874948 4.31249478,12.1874948 L4.53124426,12.1874948 C5.13552902,12.1874948 5.62499166,11.6980321 5.62499166,11.0937474 L5.62499166,10.8749979 L4.09374531,10.8749979 C3.00819568,10.8749979 2.125,9.99180224 2.125,8.90625261 L2.125,5.84375991 C2.125,4.75821028 3.00819568,3.8750146 4.09374531,3.8750146 L7.59373696,3.8750146 Z M8.2499854,11.0937474 L8.2499854,5.84375991 C8.2499854,5.48281793 7.95467894,5.18751147 7.59373696,5.18751147 L4.09374531,5.18751147 C3.73280333,5.18751147 3.43749687,5.48281793 3.43749687,5.84375991 L3.43749687,8.90625261 C3.43749687,9.26719459 3.73280333,9.56250104 4.09374531,9.56250104 L6.93748853,9.56250104 L6.93748853,11.0937474 C6.93748853,12.4199161 5.85741298,13.4999917 4.53124426,13.4999917 L4.31249478,13.4999917 L4.31249478,14.8124885 L4.53124426,14.8124885 C6.58202062,14.8124885 8.2499854,13.1445238 8.2499854,11.0937474 Z M15.9062171,3.8750146 C16.9917668,3.8750146 17.8749624,4.75821028 17.8749624,5.84375991 L17.8749624,11.0937474 C17.8749624,13.8691314 15.6191085,16.1249854 12.8437244,16.1249854 L12.624975,16.1249854 C11.9003673,16.1249854 11.3124781,15.5370962 11.3124781,14.8124885 L11.3124781,13.4999917 C11.3124781,12.775384 11.9003673,12.1874948 12.624975,12.1874948 L12.8437244,12.1874948 C13.4480092,12.1874948 13.9374718,11.6980321 13.9374718,11.0937474 L13.9374718,10.8749979 L12.4062255,10.8749979 C11.3206759,10.8749979 10.4374802,9.99180224 10.4374802,8.90625261 L10.4374802,5.84375991 C10.4374802,4.75821028 11.3206759,3.8750146 12.4062255,3.8750146 L15.9062171,3.8750146 Z M16.5624656,11.0937474 L16.5624656,5.84375991 C16.5624656,5.48281793 16.2671591,5.18751147 15.9062171,5.18751147 L12.4062255,5.18751147 C12.0452835,5.18751147 11.7499771,5.48281793 11.7499771,5.84375991 L11.7499771,8.90625261 C11.7499771,9.26719459 12.0452835,9.56250104 12.4062255,9.56250104 L15.2499687,9.56250104 L15.2499687,11.0937474 C15.2499687,12.4199161 14.1698932,13.4999917 12.8437244,13.4999917 L12.624975,13.4999917 L12.624975,14.8124885 L12.8437244,14.8124885 C14.8945008,14.8124885 16.5624656,13.1445238 16.5624656,11.0937474 Z" id=""></path>
            </g>
        </g>
    </g>
</svg>
