<?xml version="1.0" encoding="UTF-8"?>
<svg  viewBox="0 0 11 13" version="1.1" xmlns="http://www.w3.org/2000/svg" xmlns:xlink="http://www.w3.org/1999/xlink">
    <!-- Generator: Sketch 53.1 (72631) - https://sketchapp.com -->
    <title>modules/texteditor/tooltip/custom-icon/H1</title>
    <desc>Created with Sketch.</desc>
    <g id="Documentation" stroke="none" stroke-width="1" fill="none" fill-rule="evenodd">
        <g id="Trama---LIibrary-2" transform="translate(-212.000000, -3270.000000)" >
            <g id="icons/custom/text-editor/T-large" transform="translate(207.573911, 3266.454468)">
                <path fill="currentColor" d="M4.90144739,7.30241644 L4.90144739,4.27925147 C4.90144739,4.06865226 5.07266316,3.89790386 5.28383883,3.89790386 L14.7161612,3.89790386 C14.9273368,3.89790386 15.0985526,4.06865226 15.0985526,4.27925147 L15.0985526,7.30241644 C15.0985526,7.51301566 14.9273368,7.68376405 14.7161612,7.68376405 L13.8638425,7.68376405 C13.6526668,7.68376405 13.4814511,7.51301566 13.4814511,7.30241644 L13.4814511,5.42329431 L10.8679649,5.42329431 L10.8679649,14.5767057 L12.4218125,14.5767057 C12.6329882,14.5767057 12.8042039,14.7474541 12.8042039,14.9580533 L12.8042039,15.7207485 C12.8042039,15.9313477 12.6329882,16.1020961 12.4218125,16.1020961 L7.57818751,16.1020961 C7.36701183,16.1020961 7.19579606,15.9313477 7.19579606,15.7207485 L7.19579606,14.9580533 C7.19579606,14.7474541 7.36701183,14.5767057 7.57818751,14.5767057 L9.13203515,14.5767057 L9.13203515,5.42329431 L6.49872832,5.42329431 L6.49872832,7.30241644 C6.49872832,7.51301566 6.32751255,7.68376405 6.11633688,7.68376405 L5.28383883,7.68376405 C5.07266316,7.68376405 4.90144739,7.51304744 4.90144739,7.30241644 Z" id="Path"></path>
            </g>
        </g>
    </g>
</svg>
