<?xml version="1.0" encoding="UTF-8"?>
<svg width="11px" height="11px" viewBox="0 0 11 11" version="1.1" xmlns="http://www.w3.org/2000/svg" xmlns:xlink="http://www.w3.org/1999/xlink">
    <!-- Generator: Sketch 53.1 (72631) - https://sketchapp.com -->
    <title>modules/texteditor/tooltip/custom-icon/H1 Copy</title>
    <desc>Created with Sketch.</desc>
    <g id="Documentation" stroke="none" stroke-width="1" fill="none" fill-rule="evenodd">
        <g id="Trama---LIibrary-2" transform="translate(-250.000000, -3272.000000)" >
            <g id="icons/custom/text-editor/T-small" transform="translate(245.881032, 3266.454468)">
                <path fill="currentColor" d="M4.90144739,9.31624127 L4.90144739,6.28480122 C4.90144739,6.07362554 5.07266316,5.90240977 5.28383883,5.90240977 L14.7161612,5.90240977 C14.9273368,5.90240977 15.0985526,6.07362554 15.0985526,6.28480122 L15.0985526,9.31624127 C15.0985526,9.52741695 14.9273368,9.69863272 14.7161612,9.69863272 L13.8638425,9.69863272 C13.6526668,9.69863272 13.4814511,9.52741695 13.4814511,9.31624127 L13.4814511,7.43197555 L10.8679649,7.43197555 L10.8679649,14.5725304 L12.4218125,14.5725304 C12.6329882,14.5725304 12.8042039,14.7437461 12.8042039,14.9549218 L12.8042039,15.7197047 C12.8042039,15.9308804 12.6329882,16.1020961 12.4218125,16.1020961 L7.57818751,16.1020961 C7.36701183,16.1020961 7.19579606,15.9308804 7.19579606,15.7197047 L7.19579606,14.9549218 C7.19579606,14.7437461 7.36701183,14.5725304 7.57818751,14.5725304 L9.13203515,14.5725304 L9.13203515,7.43197555 L6.49872832,7.43197555 L6.49872832,9.31624127 C6.49872832,9.52741695 6.32751255,9.69863272 6.11633688,9.69863272 L5.28383883,9.69863272 C5.07266316,9.69863272 4.90144739,9.52744881 4.90144739,9.31624127 Z" id="Fill-1"></path>
            </g>
        </g>
    </g>
</svg>
